<svg id="Группа_2" data-name="Группа 2" xmlns="http://www.w3.org/2000/svg" width="2200" height="1600" viewBox="0 0 2200 1600">
  <defs>
    <style>
      .cls-1 {
        fill: #ff4800;
      }

      .cls-1, .cls-2 {
        fill-rule: evenodd;
      }

      .cls-2 {
        fill: #fff;
      }
    </style>
  </defs>
  <g id="Группа_1" data-name="Группа 1">
    <path id="Прямоугольник_4" data-name="Прямоугольник 4" class="cls-1" d="M844.262,937.014H723.205l-0.251-.387h-9.173L569.4,686.548,507.249,794.194h-72.09l35.023-60.663-27.125-46.983-62.15,107.646H308.818L420.875,600.1h44.363l40.989,71,40.99-71h44.362L750.147,874.751H808.12l61.31-106.192-61.315-106.2H753.864l60.975,105.612L778.794,830.4,645.831,600.1h37.092V600.1H833.73l0,0.008h10.53L941.52,768.559h0ZM323.821,893.069l-25.148,43.558H226.584l25.148-43.558h72.089Z"/>
    <path id="Эллипс_1_копия_8" data-name="Эллипс 1 копия 8" class="cls-2" d="M603.279,832.812a91.191,91.191,0,0,0-76.786,41.947H496.962a91.254,91.254,0,0,0-153.572,0H240.006L204.063,812.5H623.37l16.016,27.742A90.956,90.956,0,0,0,603.279,832.812Zm-183.1,15.1A76.189,76.189,0,1,1,343.986,924.1,76.189,76.189,0,0,1,420.175,847.912Zm0.014,103.624a27.429,27.429,0,1,0-27.429-27.428A27.428,27.428,0,0,0,420.189,951.536ZM603.278,847.912A76.189,76.189,0,1,1,527.089,924.1,76.189,76.189,0,0,1,603.278,847.912Zm0.015,103.624a27.429,27.429,0,1,0-27.429-27.428A27.429,27.429,0,0,0,603.293,951.536Z"/>
  </g>
  <path id="MyDumper" class="cls-2" d="M1077.73,840.545V763.867l27.19,37.886h18.13l27.37-37.886v76.678h30.45V718.73h-31.9l-34.99,48.4L1079,718.73h-31.91V840.545h30.64Zm183.95-89.729-17.58,53.838-17.58-53.838h-33.36l36.44,88.461-1.63,3.988q-4.545,11.781-14.87,11.782a35.308,35.308,0,0,1-8.16-1.087l-3.98,24.653a69.528,69.528,0,0,0,15.4,1.812q27.555,0,40.43-32.991l38.25-96.618h-33.36Zm98.53,89.729q28.29,0,45.96-16.949t17.67-43.958q0-27.191-17.58-44.049-17.6-16.859-46.05-16.859H1307.1V840.545h53.11Zm-3.98-25.378h-15.96V744.109h15.96q14.85,0,24.29,9.97,9.42,9.971,9.42,25.559t-9.42,25.559q-9.435,9.972-24.29,9.97h0Zm142.73-64.351v48.218a18.063,18.063,0,0,1-4.63,12.78,15.457,15.457,0,0,1-11.87,4.985,13.794,13.794,0,0,1-10.33-4.079,14.28,14.28,0,0,1-3.99-10.423V750.816h-31.91v56.738q0,15.592,10.07,25.378,10.05,9.789,25.83,9.789,18.48,0,29.36-11.964l3.99,9.788h25.38V750.816h-31.9Zm82.32,89.729V791.058q0-7.248,4.26-11.783a14.393,14.393,0,0,1,10.97-4.531,12.213,12.213,0,0,1,9.15,3.625,12.692,12.692,0,0,1,3.54,9.245v52.931h31.9V791.058q0-7.248,4.17-11.783a14.109,14.109,0,0,1,10.88-4.531,12.377,12.377,0,0,1,9.15,3.534,12.614,12.614,0,0,1,3.54,9.336v52.931h31.9V782.357q0-14.862-9.61-24.29t-24.83-9.427q-17.04,0-31.91,13.415-9.06-13.413-27.73-13.415-15.765,0-27.92,11.239l-3.98-9.063h-25.38v89.729h31.9Zm168.46,37.705V834.2a36.272,36.272,0,0,0,24.11,8.52q18.3,0,30-13.143t11.69-33.807q0-20.842-11.69-33.988t-30-13.143q-16.14,0-26.65,10.514l-3.99-8.338h-25.38V878.25h31.91Zm28.37-66.708a15.724,15.724,0,0,1-12.78,6.163,15.246,15.246,0,0,1-11.61-4.8q-4.53-4.8-4.53-12.417v-9.426a17.9,17.9,0,0,1,4.44-12.508,15.042,15.042,0,0,1,11.7-4.894,15.733,15.733,0,0,1,12.78,6.163q4.98,6.165,4.98,15.952Q1783.09,805.382,1778.11,811.542Zm61.11,18.036q14.235,13.146,37.07,13.143,18.495,0,38.25-9.245l-9.42-21.39q-13.965,7.253-24.84,7.251a27.042,27.042,0,0,1-15.22-4.17,18.546,18.546,0,0,1-8.16-11.239h61.45a84.322,84.322,0,0,0,.54-9.607q0-20.3-12.69-32.992t-32.81-12.689q-21.39,0-34.89,13.143t-13.51,33.988Q1824.99,816.437,1839.22,829.578Zm44.14-53.928a15.73,15.73,0,0,1,4.9,9.607H1856.9a17.23,17.23,0,0,1,5.89-9.607,16.23,16.23,0,0,1,10.6-3.625A14.266,14.266,0,0,1,1883.36,775.65Zm80.61,64.895V796.5q0-9.789,5.35-15.77t14.41-5.982a56.766,56.766,0,0,1,10.33,1.087l2.72-25.2a50.981,50.981,0,0,0-10.33-1.268q-16.32,0-25.02,12.689l-3.99-11.239h-25.38v89.729h31.91Z"/>
</svg>
