<svg id="Группа_2" data-name="Группа 2" xmlns="http://www.w3.org/2000/svg" width="1600" height="1600" viewBox="0 0 1600 1600">
  <defs>
    <style>
      .cls-1 {
        fill: #ff4800;
      }

      .cls-1, .cls-2 {
        fill-rule: evenodd;
      }

      .cls-2 {
        fill: #12100a;
      }
    </style>
  </defs>
  <g id="Группа_1" data-name="Группа 1">
    <path id="Прямоугольник_4" data-name="Прямоугольник 4" class="cls-1" d="M1071.26,811.014H950.205l-0.251-.387h-9.173L796.4,560.548,734.249,668.194h-72.09l35.023-60.663-27.125-46.983-62.15,107.646H535.818L647.875,474.1h44.363l40.989,71,40.989-71h44.363L977.147,748.751h57.973l61.31-106.192-61.31-106.2H980.863l60.977,105.612L1005.79,704.4,872.831,474.1h37.092V474.1H1060.73V474.1h10.53l97.26,168.455h0ZM550.821,767.069l-25.148,43.558H453.584l25.148-43.558h72.089Z"/>
    <path id="Эллипс_1_копия_8" data-name="Эллипс 1 копия 8" class="cls-2" d="M830.279,706.812a91.191,91.191,0,0,0-76.786,41.947H723.962a91.254,91.254,0,0,0-153.572,0H467.006L431.063,686.5H850.37l16.016,27.742A90.96,90.96,0,0,0,830.279,706.812Zm-183.1,15.1A76.189,76.189,0,1,1,570.986,798.1,76.189,76.189,0,0,1,647.175,721.912Zm0.014,103.624a27.429,27.429,0,1,0-27.429-27.428A27.428,27.428,0,0,0,647.189,825.536ZM830.278,721.912A76.189,76.189,0,1,1,754.089,798.1,76.189,76.189,0,0,1,830.278,721.912Zm0.015,103.624a27.429,27.429,0,1,0-27.429-27.428A27.429,27.429,0,0,0,830.293,825.536Z"/>
  </g>
  <path id="MyDumper" class="cls-2" d="M355.73,1085.55v-76.68l27.19,37.88h18.128l27.372-37.88v76.68h30.453V963.73h-31.9l-34.986,48.4L357,963.73H325.1v121.82H355.73Zm183.952-89.734L522.1,1049.65l-17.583-53.834H471.162L507.6,1084.28l-1.631,3.98q-4.533,11.79-14.865,11.79a35.59,35.59,0,0,1-8.157-1.09l-3.988,24.65a69.391,69.391,0,0,0,15.408,1.82q27.552,0,40.424-33l38.249-96.614H539.682Zm98.532,89.734q28.278,0,45.953-16.95t17.674-43.96q0-27.2-17.584-44.051T638.214,963.73H585.1v121.82h53.113Zm-3.988-25.38H618.274V989.109h15.952q14.862,0,24.291,9.97t9.426,25.561q0,15.585-9.426,25.56-9.429,9.96-24.291,9.97h0Zm142.729-64.354v48.214q0,7.8-4.622,12.78a15.452,15.452,0,0,1-11.874,4.99,13.8,13.8,0,0,1-10.332-4.08,14.276,14.276,0,0,1-3.988-10.42V995.816h-31.9v56.734q0,15.6,10.06,25.38t25.832,9.79q18.489,0,29.366-11.96l3.988,9.79h25.378V995.816h-31.9Zm82.327,89.734v-49.49q0-7.245,4.26-11.78a14.384,14.384,0,0,1,10.967-4.54,12.216,12.216,0,0,1,9.154,3.63,12.7,12.7,0,0,1,3.535,9.24v52.94h31.9v-49.49q0-7.245,4.169-11.78a14.1,14.1,0,0,1,10.876-4.54,12.381,12.381,0,0,1,9.155,3.54,12.61,12.61,0,0,1,3.534,9.33v52.94h31.9v-58.19q0-14.865-9.607-24.29T944.3,993.64q-17.042,0-31.9,13.41-9.067-13.405-27.735-13.41-15.771,0-27.916,11.24l-3.988-9.064H827.378v89.734h31.9Zm168.458,37.7V1079.2a36.282,36.282,0,0,0,24.11,8.52q18.3,0,30-13.14t11.69-33.81q0-20.835-11.69-33.99-11.7-13.137-30-13.14-16.14,0-26.65,10.51l-3.99-8.334H995.833V1123.25h31.907Zm28.37-66.71a15.731,15.731,0,0,1-12.78,6.17,15.265,15.265,0,0,1-11.61-4.81q-4.53-4.8-4.53-12.42v-9.42a17.9,17.9,0,0,1,4.44-12.51,15.049,15.049,0,0,1,11.7-4.89,15.721,15.721,0,0,1,12.78,6.16q4.98,6.165,4.98,15.95Q1061.09,1050.385,1056.11,1056.54Zm61.11,18.04q14.235,13.14,37.07,13.14,18.495,0,38.25-9.24l-9.42-21.39q-13.965,7.245-24.84,7.25a27.058,27.058,0,0,1-15.22-4.17,18.565,18.565,0,0,1-8.16-11.24h61.45a84.4,84.4,0,0,0,.54-9.61q0-20.295-12.69-32.99t-32.81-12.69q-21.39,0-34.89,13.14t-13.51,33.99Q1102.99,1061.44,1117.22,1074.58Zm44.14-53.93a15.735,15.735,0,0,1,4.9,9.61H1134.9a17.235,17.235,0,0,1,5.89-9.61,16.212,16.212,0,0,1,10.6-3.63A14.251,14.251,0,0,1,1161.36,1020.65Zm80.61,64.9V1041.5q0-9.8,5.35-15.77t14.41-5.99a57.242,57.242,0,0,1,10.33,1.09l2.72-25.2a50.981,50.981,0,0,0-10.33-1.268q-16.32,0-25.02,12.684l-3.99-11.234h-25.38v89.734h31.91Z"/>
</svg>
